<?xml version="1.0" encoding="utf-8"?>
<!-- Generator: Adobe Illustrator 19.2.1, SVG Export Plug-In . SVG Version: 6.00 Build 0)  -->
<svg version="1.1" id="layer" xmlns="http://www.w3.org/2000/svg" xmlns:xlink="http://www.w3.org/1999/xlink" x="0px" y="0px"
	 viewBox="0 0 652 652" style="enable-background:new 0 0 652 652;" xml:space="preserve">
<path d="M90.9,370.4H64.4v-37.9H47.2v37.9H20v-97.7h27.2v36.4h17.2v-36.4h26.5V370.4z M212.6,370.9c27.2,0,49.4-22.6,49.4-50.1
	c0-28-22.2-49.6-49.4-49.6c-27.5,0-41.4,20-44.8,28.2c0-12.1-12.1-26.5-26.1-26.5H96.4v97.7h42.2c17.2,0,29.3-14.7,29.3-27.5
	C171.6,350.9,185.1,370.9,212.6,370.9L212.6,370.9z M135.2,331.2c3.9,0,7.1,3.8,7.1,8.2c0,4.6-3.2,8.4-7.1,8.4h-13.5v-16.5H135.2z
	 M135.2,294.5c3.9,0,7.1,3.8,7.1,8.2s-3.2,8.2-7.1,8.2h-13.5v-16.3H135.2z M153,320.7c3.2-0.2,8.3-3.8,10.2-6
	c-0.8,2.6-0.8,10.9,0,13.5C161.1,325.1,156.2,321.3,153,320.7z M187.8,320.7c0-13.8,11.2-24.9,25-24.8c13.7,0.1,24.7,11.2,24.6,24.8
	c0,0.1,0,0.2,0,0.3c-0.2,13.6-11.2,24.5-24.8,24.5C198.9,345.6,187.8,334.5,187.8,320.7z M212.6,340.3c10.6,0,19.5-8.7,19.5-19.6
	c0-10.9-8.9-19.5-19.5-19.5c-10.9,0-19.6,8.6-19.6,19.5S201.8,340.3,212.6,340.3L212.6,340.3z M403.9,307.3
	c-0.5-23.7-17.3-36.2-37.8-36.2c-11.3,0-21.4,3.8-28.3,11.1c-6.9-7.3-17-11.1-28.3-11.1c-20.5,0-37.3,12.5-37.8,36.2
	c0,0.1,0,0.1,0,0.2v54c0,5,4,9,9,9h8.5c0.8,0,1.5-0.7,1.5-1.5l0,0v-61.4h0c0.4-11.7,8.7-17.9,18.8-17.9s18.5,6.2,18.8,17.9h0v54
	c0,5,4,9,9,9h8.5c0.8,0,1.5-0.7,1.5-1.5l0,0v-61.4h0c0.4-11.7,8.7-17.9,18.8-17.9c10.2,0,18.5,6.2,18.8,17.9h0v54c0,5,4,9,9,9h8.5
	c0.8,0,1.5-0.7,1.5-1.5l0,0v-61.4C403.9,307.5,403.9,307.4,403.9,307.3z M594.8,272.7h-14.4c-4,0-7.7,2-9.9,5.3l-15.9,23.6
	c-1.6,2.4-4.9,3-7.3,1.4c-0.6-0.4-1-0.9-1.4-1.4L530,278c-2.2-3.3-5.9-5.3-9.9-5.3h-14.4c-0.6,0-1.1,0.5-1.1,1.1
	c0,0.2,0.1,0.4,0.2,0.6l28.4,42.1c2,3,2,7,0,10l-28.4,42.1c-0.3,0.5-0.2,1.2,0.3,1.6c0.2,0.1,0.4,0.2,0.6,0.2h14.4
	c4,0,7.7-2,9.9-5.3l15.9-23.6c1.6-2.4,4.9-3,7.3-1.4c0.6,0.4,1,0.9,1.4,1.4l15.9,23.6c2.2,3.3,5.9,5.3,9.9,5.3h14.4
	c0.6,0,1.1-0.5,1.1-1.1c0-0.2-0.1-0.4-0.2-0.6l-28.4-42.1c-2-3-2-7,0-10l28.4-42.1c0.3-0.5,0.2-1.2-0.3-1.6
	C595.2,272.8,595,272.7,594.8,272.7z M498.2,272.7h-8.5c-4.2,0-7.9,2.9-8.8,7.1c-7.6-5.7-17-8.7-27.2-8.7c-24.8,0-45,17.3-45,49.9
	s20.1,49.9,45,49.9c10.2,0,19.5-2.9,27.1-8.6c0.4,4.6,4.3,8.2,8.9,8.2h8.5c0.8,0,1.5-0.7,1.5-1.5l0,0v-94.8
	C499.7,273.4,499,272.7,498.2,272.7z M453.7,352.3c-14.8,0-26.8-10.8-26.8-31.3s12-31.3,26.8-31.3s26.8,10.8,26.8,31.3
	S468.5,352.3,453.7,352.3z M607.9,274.6H605v8.5H603v-8.5h-2.8v-2h7.7V274.6z M620,283.1h-2.1v-6.8l-2.9,4.9h-0.2l-2.9-4.8v6.8h-2.1
	v-10.5h2.1l3,4.9l3-4.9h2.1L620,283.1L620,283.1z"/>
</svg>
